<svg width="37" height="37" viewBox="0 0 37 37" fill="none" xmlns="http://www.w3.org/2000/svg">
<circle opacity="0.75" cx="18.5" cy="18.5" r="18.5" fill="white"/>
<path d="M11.2015 16.52L10.5389 16.4453L11.2015 16.52ZM10.1642 25.8533L10.8269 25.9267L10.1642 25.8533ZM25.8362 25.8533L25.1735 25.9267L25.8362 25.8533ZM24.7989 16.52L25.4615 16.4453L24.7989 16.52ZM10.5389 16.4453L9.50154 25.7787L10.8269 25.9253L11.8642 16.592L10.5389 16.4453ZM11.4895 28H24.5109V26.6667H11.4895V28ZM26.4989 25.7787L25.4615 16.4453L24.1362 16.592L25.1735 25.9253L26.4975 25.7787H26.4989ZM23.4722 14.6667H12.5282V16H23.4749V14.6667H23.4722ZM25.4615 16.4453C25.4071 15.9562 25.1742 15.5043 24.8074 15.1762C24.4406 14.848 23.9657 14.6666 23.4735 14.6667V16C23.6377 16 23.796 16.0605 23.9183 16.17C24.0406 16.2795 24.1182 16.4302 24.1362 16.5933L25.4615 16.4467V16.4453ZM24.5109 28C24.7921 27.9999 25.0701 27.9404 25.3268 27.8255C25.5835 27.7106 25.8131 27.5429 26.0006 27.3333C26.1881 27.1237 26.3292 26.8768 26.4149 26.609C26.5005 26.3411 26.5287 26.0582 26.4975 25.7787L25.1735 25.9253C25.1841 26.0186 25.1748 26.1131 25.1462 26.2025C25.1177 26.2919 25.0707 26.3743 25.0081 26.4443C24.9456 26.5143 24.8689 26.5703 24.7832 26.6086C24.6976 26.6469 24.6047 26.6667 24.5109 26.6667V28ZM9.50154 25.7787C9.47041 26.0583 9.49862 26.3413 9.58433 26.6093C9.67003 26.8773 9.81132 27.1241 9.99894 27.3338C10.1866 27.5434 10.4163 27.7111 10.6732 27.8259C10.93 27.9407 11.2082 28 11.4895 28V26.6667C11.3958 26.6667 11.3031 26.6469 11.2175 26.6087C11.1319 26.5704 11.0554 26.5146 10.9929 26.4447C10.9303 26.3749 10.8832 26.2927 10.8546 26.2034C10.826 26.1141 10.8166 26.0198 10.8269 25.9267L9.50154 25.78V25.7787ZM11.8642 16.592C11.8826 16.4291 11.9603 16.2787 12.0825 16.1695C12.2048 16.0603 12.363 16 12.5269 16V14.6667C12.0349 14.6669 11.5604 14.8485 11.1939 15.1766C10.8274 15.5047 10.5946 15.9564 10.5402 16.4453L11.8642 16.592ZM14.6669 13.3333V12.6667H13.3335V13.3333H14.6669ZM21.3335 12.6667V13.3333H22.6669V12.6667H21.3335ZM18.0002 9.33333C18.8843 9.33333 19.7321 9.68452 20.3572 10.3096C20.9824 10.9348 21.3335 11.7826 21.3335 12.6667H22.6669C22.6669 11.429 22.1752 10.242 21.3 9.36683C20.4249 8.49167 19.2379 8 18.0002 8V9.33333ZM14.6669 12.6667C14.6669 11.7826 15.0181 10.9348 15.6432 10.3096C16.2683 9.68452 17.1162 9.33333 18.0002 9.33333V8C16.7625 8 15.5755 8.49167 14.7004 9.36683C13.8252 10.242 13.3335 11.429 13.3335 12.6667H14.6669Z" fill="#415161"/>
</svg>
