<svg width="37" height="37" viewBox="0 0 37 37" fill="none" xmlns="http://www.w3.org/2000/svg">
<circle opacity="0.75" cx="18.5" cy="18.5" r="18.5" fill="#EE1D52"/>
<path d="M18.0917 24.7771L18 24.8729L17.8992 24.7771C13.545 20.6467 10.6667 17.9154 10.6667 15.1458C10.6667 13.2292 12.0417 11.7917 13.875 11.7917C15.2867 11.7917 16.6617 12.75 17.1475 14.0533H18.8525C19.3384 12.75 20.7134 11.7917 22.125 11.7917C23.9584 11.7917 25.3334 13.2292 25.3334 15.1458C25.3334 17.9154 22.455 20.6467 18.0917 24.7771ZM22.125 9.875C20.53 9.875 18.9992 10.6512 18 11.8683C17.0009 10.6512 15.47 9.875 13.875 9.875C11.0517 9.875 8.83337 12.1846 8.83337 15.1458C8.83337 18.7587 11.95 21.72 16.6709 26.1954L18 27.4604L19.3292 26.1954C24.05 21.72 27.1667 18.7587 27.1667 15.1458C27.1667 12.1846 24.9484 9.875 22.125 9.875Z" fill="white"/>
</svg>
