<svg width="37" height="37" viewBox="0 0 37 37" fill="none" xmlns="http://www.w3.org/2000/svg">
<circle opacity="0.75" cx="18.5" cy="18.5" r="18.5" fill="white"/>
<path d="M18.0918 24.7771L18.0002 24.8729L17.8993 24.7771C13.5452 20.6467 10.6668 17.9154 10.6668 15.1458C10.6668 13.2292 12.0418 11.7917 13.8752 11.7917C15.2868 11.7917 16.6618 12.75 17.1477 14.0533H18.8527C19.3385 12.75 20.7135 11.7917 22.1252 11.7917C23.9585 11.7917 25.3335 13.2292 25.3335 15.1458C25.3335 17.9154 22.4552 20.6467 18.0918 24.7771ZM22.1252 9.875C20.5302 9.875 18.9993 10.6512 18.0002 11.8683C17.001 10.6512 15.4702 9.875 13.8752 9.875C11.0518 9.875 8.8335 12.1846 8.8335 15.1458C8.8335 18.7587 11.9502 21.72 16.671 26.1954L18.0002 27.4604L19.3293 26.1954C24.0502 21.72 27.1668 18.7587 27.1668 15.1458C27.1668 12.1846 24.9485 9.875 22.1252 9.875Z" fill="#415161"/>
</svg>
